<svg xmlns="http://www.w3.org/2000/svg" viewBox="0 0 800 1000" role="img" aria-labelledby="title desc">
  <title id="title">Donny Kanner birthday-month hero portrait</title>
  <desc id="desc">A bald, red-bearded hero raising a mug in a warmly lit tavern.</desc>
  <defs>
    <linearGradient id="bg" x1="0" x2="0" y1="0" y2="1">
      <stop offset="0%" stop-color="#3b2618"/>
      <stop offset="100%" stop-color="#130d09"/>
    </linearGradient>
    <linearGradient id="coat" x1="0" x2="1" y1="0" y2="1">
      <stop offset="0%" stop-color="#8b4f2a"/>
      <stop offset="100%" stop-color="#5e331b"/>
    </linearGradient>
    <linearGradient id="beard" x1="0" x2="0" y1="0" y2="1">
      <stop offset="0%" stop-color="#de5a2c"/>
      <stop offset="100%" stop-color="#b53b18"/>
    </linearGradient>
  </defs>
  <rect width="800" height="1000" fill="url(#bg)"/>
  <circle cx="130" cy="130" r="20" fill="#efc46a" opacity=".85"/>
  <circle cx="680" cy="140" r="15" fill="#efc46a" opacity=".75"/>
  <circle cx="730" cy="260" r="17" fill="#efc46a" opacity=".8"/>
  <rect x="130" y="560" width="560" height="300" rx="40" fill="url(#coat)"/>
  <ellipse cx="400" cy="380" rx="130" ry="140" fill="#f0b58d"/>
  <ellipse cx="400" cy="305" rx="100" ry="92" fill="#f5c19a"/>
  <path d="M300 285 Q400 220 500 285" stroke="#2b140e" stroke-width="12" fill="none" stroke-linecap="round"/>
  <circle cx="355" cy="335" r="11" fill="#1b1009"/>
  <circle cx="445" cy="335" r="11" fill="#1b1009"/>
  <path d="M360 390 Q400 420 440 390" stroke="#6f2d1a" stroke-width="8" fill="none" stroke-linecap="round"/>
  <path d="M275 390 Q400 640 525 390 Q505 625 400 680 Q295 625 275 390Z" fill="url(#beard)"/>
  <rect x="250" y="610" width="300" height="190" rx="22" fill="#204064"/>
  <g fill="#f5f3e8">
    <polygon points="300,670 320,690 300,710 280,690"/>
    <polygon points="375,640 395,660 375,680 355,660"/>
    <polygon points="450,695 470,715 450,735 430,715"/>
    <polygon points="510,640 530,660 510,680 490,660"/>
  </g>
  <rect x="150" y="450" width="210" height="90" rx="25" fill="#d7d7d7" stroke="#5a5a5a" stroke-width="6"/>
  <rect x="335" y="472" width="34" height="46" rx="8" fill="#d7d7d7" stroke="#5a5a5a" stroke-width="6"/>
  <path d="M155 488 Q255 520 355 488" stroke="#f5f5f5" stroke-width="8" fill="none" opacity=".8"/>
  <rect x="0" y="870" width="800" height="130" fill="#2a1a11"/>
  <text x="400" y="940" text-anchor="middle" font-family="Georgia,serif" font-size="38" fill="#efc46a">Donny Kanner • Birthday Month Hero</text>
</svg>
